<svg xmlns="http://www.w3.org/2000/svg" xml:space="preserve" style="fill-rule:evenodd;clip-rule:evenodd;stroke-linejoin:round;stroke-miterlimit:2" viewBox="0 0 190 60">
  <path class="lettermark-ampersand" d="M.599 0 .534-.063a.374.374 0 0 1-.232.074.341.341 0 0 1-.141-.027.197.197 0 0 1-.125-.188c0-.044.012-.084.035-.12a.27.27 0 0 1 .107-.087.226.226 0 0 1-.037-.061.197.197 0 0 1-.011-.065.17.17 0 0 1 .102-.156.28.28 0 0 1 .117-.023c.046 0 .085.008.117.025a.174.174 0 0 1 .072.067.172.172 0 0 1 .022.092H.399a.056.056 0 0 0-.013-.042.056.056 0 0 0-.039-.014.06.06 0 0 0-.04.014.044.044 0 0 0-.016.036c0 .014.005.029.014.044a.319.319 0 0 0 .042.053l.171.167a.066.066 0 0 1 .006-.012l.007-.016.037-.063h.171l-.048.087a.867.867 0 0 1-.062.112L.798 0H.599ZM.31-.127a.199.199 0 0 0 .119-.038L.273-.316c-.048.025-.072.058-.072.1 0 .025.01.046.03.063a.116.116 0 0 0 .079.026Z" style="fill:#d8d8d8;fill-rule:nonzero" transform="matrix(72.17865 0 0 75.65349 54.486 56.668)"/>
  <g class="lettermark-pixels">
    <path d="M.156-.082c.005.008.017.015.037.023a.19.19 0 0 0 .057.01.111.111 0 0 0 .071-.02.065.065 0 0 0 .023-.051c0-.022-.01-.04-.029-.053a.552.552 0 0 0-.098-.051L.189-.236a.266.266 0 0 1-.103-.07.159.159 0 0 1-.034-.106c0-.03.009-.057.027-.081a.176.176 0 0 1 .076-.055.304.304 0 0 1 .113-.02.458.458 0 0 1 .151.022.135.135 0 0 0 .03.008v.131H.37L.347-.483C.343-.49.334-.496.32-.501a.142.142 0 0 0-.048-.008.12.12 0 0 0-.066.017.058.058 0 0 0-.024.049c0 .019.006.034.017.046a.125.125 0 0 0 .037.029c.013.007.038.018.074.033a.76.76 0 0 1 .09.044.193.193 0 0 1 .059.055.14.14 0 0 1 .023.081.146.146 0 0 1-.058.12.262.262 0 0 1-.167.046.419.419 0 0 1-.091-.009 1.647 1.647 0 0 1-.094-.024L.05-.029v-.132h.083l.023.079Z" style="fill-rule:nonzero" transform="translate(166.675 44.483) scale(30.70376)"/>
    <path d="M.103-.731.029-.744v-.054L.214-.82h.002l.027.019v.733l.073.008V0H.033v-.06l.07-.009v-.662Z" style="fill-rule:nonzero" transform="translate(156.235 44.483) scale(30.70376)"/>
    <path d="M.297.011C.209.011.143-.015.101-.067a.319.319 0 0 1-.065-.211c0-.06.011-.112.034-.156a.23.23 0 0 1 .094-.101.283.283 0 0 1 .141-.035c.067 0 .118.017.154.052a.205.205 0 0 1 .056.15.458.458 0 0 1-.008.098H.182a.243.243 0 0 0 .043.141.131.131 0 0 0 .111.051.263.263 0 0 0 .146-.044l.025.055a.246.246 0 0 1-.087.053.318.318 0 0 1-.123.025ZM.375-.33l.002-.043c0-.089-.03-.133-.089-.133a.087.087 0 0 0-.076.039c-.018.026-.028.072-.03.137h.193Z" style="fill-rule:nonzero" transform="translate(140.27 44.483) scale(30.70376)"/>
    <path d="M.228-.273.063-.486.011-.498v-.058H.3v.058l-.065.012.079.111.026.042.026-.042.081-.111-.068-.012v-.058h.217v.058l-.057.012-.158.194.173.224.055.009V0H.32v-.059l.059-.01-.077-.117-.03-.044-.024.043-.082.118.077.01V0h-.24v-.059l.064-.01.161-.204Z" style="fill-rule:nonzero" transform="translate(122.615 44.483) scale(30.70376)"/>
    <path d="M.164-.647a.077.077 0 0 1-.057-.021.073.073 0 0 1-.021-.054c0-.025.008-.046.024-.063A.083.083 0 0 1 .174-.81c.027 0 .047.007.061.021a.076.076 0 0 1 .021.054.086.086 0 0 1-.024.064.09.09 0 0 1-.067.024H.164Zm-.053.186L.04-.48v-.067l.183-.022h.002l.028.02v.481L.32-.06V0H.041v-.06l.07-.009v-.392Z" style="fill-rule:nonzero" transform="translate(111.96 44.483) scale(30.70376)"/>
    <path d="M.598-.296a.344.344 0 0 1-.034.154.264.264 0 0 1-.101.111.295.295 0 0 1-.235.03l.003.083v.091l.093.012v.057H.027V.185L.092.173v-.634L.027-.479v-.069l.165-.021h.002l.025.02v.056a.208.208 0 0 1 .068-.054.201.201 0 0 1 .094-.023c.063 0 .115.022.156.068.041.044.061.113.061.206ZM.329-.487a.125.125 0 0 0-.057.013.123.123 0 0 0-.041.029v.371c.005.007.014.012.029.017a.14.14 0 0 0 .047.007.118.118 0 0 0 .103-.057c.026-.037.039-.096.039-.177a.285.285 0 0 0-.033-.153.1.1 0 0 0-.087-.05Z" style="fill-rule:nonzero" transform="translate(92.463 44.483) scale(30.70376)"/>
  </g>
  <g class="lettermark-code">
    <path d="M.297.011C.209.011.143-.015.101-.067a.319.319 0 0 1-.065-.211c0-.06.011-.112.034-.156a.23.23 0 0 1 .094-.101.283.283 0 0 1 .141-.035c.067 0 .118.017.154.052a.205.205 0 0 1 .056.15.458.458 0 0 1-.008.098H.182a.243.243 0 0 0 .043.141.131.131 0 0 0 .111.051.263.263 0 0 0 .146-.044l.025.055a.246.246 0 0 1-.087.053.318.318 0 0 1-.123.025ZM.375-.33l.002-.043c0-.089-.03-.133-.089-.133a.087.087 0 0 0-.076.039c-.018.026-.028.072-.03.137h.193Z" style="fill-rule:nonzero" transform="translate(59.994 32.26) scale(30.70376)"/>
    <path d="M.254.011a.21.21 0 0 1-.111-.03.196.196 0 0 1-.078-.091.37.37 0 0 1-.029-.155c0-.056.012-.107.034-.154a.27.27 0 0 1 .102-.11.338.338 0 0 1 .233-.033v-.169L.307-.745V-.8l.206-.02h.003l.028.021v.738h.054v.057a.609.609 0 0 1-.119.015C.458.011.443.007.434 0 .425-.007.42-.02.42-.041v-.028a.195.195 0 0 1-.071.057.211.211 0 0 1-.095.023Zm.052-.083a.128.128 0 0 0 .099-.046v-.364C.4-.489.391-.494.376-.499a.157.157 0 0 0-.049-.007.117.117 0 0 0-.102.055.32.32 0 0 0-.039.178c0 .068.011.118.033.151a.1.1 0 0 0 .087.05Z" style="fill-rule:nonzero" transform="translate(41.234 32.26) scale(30.70376)"/>
    <path d="M.045-.277c0-.063.013-.116.038-.16a.253.253 0 0 1 .1-.1A.292.292 0 0 1 .32-.57a.25.25 0 0 1 .195.077.311.311 0 0 1 .068.211.322.322 0 0 1-.037.161.247.247 0 0 1-.1.1.305.305 0 0 1-.138.032.246.246 0 0 1-.194-.078.302.302 0 0 1-.069-.21Zm.271.223c.075 0 .113-.073.113-.218a.44.44 0 0 0-.027-.174C.384-.485.355-.505.314-.505c-.077 0-.116.073-.116.218 0 .076.009.134.029.173.019.04.048.06.089.06Z" style="fill-rule:nonzero" transform="translate(22.382 32.26) scale(30.70376)"/>
    <path d="M.032-.275a.32.32 0 0 1 .035-.153.257.257 0 0 1 .099-.105.34.34 0 0 1 .219-.031.866.866 0 0 1 .065.016l.029.008-.006.171H.386l-.025-.11C.357-.496.337-.505.302-.505a.097.097 0 0 0-.087.049.3.3 0 0 0-.033.153c0 .073.013.13.038.168a.116.116 0 0 0 .101.059.257.257 0 0 0 .14-.041l.023.052a.283.283 0 0 1-.195.076C.204.011.14-.015.097-.068a.318.318 0 0 1-.065-.207Z" style="fill-rule:nonzero" transform="translate(6.908 32.26) scale(30.70376)"/>
  </g>
</svg>
